<?xml version="1.0" encoding="UTF-8"?>
<svg xmlns="http://www.w3.org/2000/svg" width="256" height="256" viewBox="0 0 1024 1024" color-interpolation="sRGB" shape-rendering="geometricPrecision">
  <title>skin_item_c_04_thumb</title>
  <desc>unemployed physical Wi-Fi router ground prop with enclosure twin antennas status LEDs and vector signal mark; thumb layer. Original project-authored procedural vector, art-v1.</desc>
  <metadata>manifestId=skin_item_c_04_thumb;style=art-v1;license=project-original</metadata>
  <defs><clipPath id="thumb_clip"><rect x="70" y="70" width="884" height="884" rx="160"/></clipPath></defs>
  <g id="asset"><g id="thumbnail_backplate"><rect x="52" y="52" width="920" height="920" rx="180" fill="#141936" stroke="#090B1A" stroke-width="28"/></g><g id="thumbnail_asset_normalized_48px" transform="translate(512 512) scale(2.15) translate(-790 -750)" clip-path="url(#thumb_clip)"><g id="physical_wifi_router_base"><ellipse cx="790" cy="912" rx="168" ry="27" fill="#090B1A" opacity="0.42"/><path d="M690 748 L664 548 M890 748 L916 548" fill="none" stroke="#090B1A" stroke-width="40" stroke-linecap="round"/><path d="M690 748 L664 548 M890 748 L916 548" fill="none" stroke="#141936" stroke-width="18" stroke-linecap="round"/><circle cx="664" cy="548" r="25" fill="#141936" stroke="#090B1A" stroke-width="12"/><circle cx="916" cy="548" r="25" fill="#141936" stroke="#090B1A" stroke-width="12"/><rect x="624" y="710" width="332" height="178" rx="36" fill="#141936" stroke="#090B1A" stroke-width="20"/><path d="M650 754 Q790 718 930 754" fill="none" stroke="#202750" stroke-width="18" stroke-linecap="round"/><rect x="657" y="872" width="58" height="38" rx="13" fill="#090B1A"/><rect x="865" y="872" width="58" height="38" rx="13" fill="#090B1A"/><path d="M738 804 Q790 754 842 804 M757 821 Q790 790 823 821" fill="none" stroke="#FFD166" stroke-width="17" stroke-linecap="round"/><circle cx="790" cy="844" r="11" fill="#FFD166" stroke="#090B1A" stroke-width="5"/><circle cx="680" cy="840" r="13" fill="#F7F5FF" stroke="#090B1A" stroke-width="7"/><circle cx="716" cy="840" r="13" fill="#F7F5FF" stroke="#090B1A" stroke-width="7"/></g><g id="router_status_and_signal"><path d="M690 748 L664 548 M890 748 L916 548" fill="none" stroke="#FFD166" stroke-width="10" stroke-linecap="round"/><circle cx="664" cy="548" r="10" fill="#52E0A4"/><circle cx="916" cy="548" r="10" fill="#52E0A4"/><circle cx="680" cy="840" r="7" fill="#52E0A4"/><circle cx="716" cy="840" r="7" fill="#FFD166"/><path d="M752 778 Q790 745 828 778" fill="none" stroke="#52E0A4" stroke-width="9" stroke-linecap="round"/></g><g id="router_searching_signal_glow"><path d="M718 678 Q790 608 862 678" fill="none" stroke="#FFD166" stroke-width="18" opacity="0.22" stroke-linecap="round"/><path d="M744 696 Q790 652 836 696" fill="none" stroke="#52E0A4" stroke-width="14" opacity="0.28" stroke-linecap="round"/><rect x="604" y="690" width="372" height="218" rx="52" fill="none" stroke="#FFD166" stroke-width="18" opacity="0.18"/></g></g></g>
</svg>
