<?xml version="1.0" encoding="UTF-8"?>
<svg xmlns="http://www.w3.org/2000/svg" width="1024" height="1024" viewBox="0 0 1024 1024" color-interpolation="sRGB" shape-rendering="geometricPrecision">
  <title>skin_item_conv_02_base</title>
  <desc>three exhausted irregular color streams settling into one stable common core; base layer. Original project-authored procedural vector, art-v1.</desc>
  <metadata>manifestId=skin_item_conv_02_base;style=art-v1;license=project-original</metadata>
  <defs></defs>
  <g id="asset"><g id="base"><path d="M92 292 C142 248 176 340 226 304 M260 286 C306 272 300 358 354 346 M386 356 C426 370 436 414 452 452" fill="none" stroke="#090B1A" stroke-width="52" stroke-linecap="round" stroke-linejoin="round"/><path d="M92 292 C142 248 176 340 226 304 M260 286 C306 272 300 358 354 346 M386 356 C426 370 436 414 452 452" fill="none" stroke="#43E6FF" stroke-width="20" stroke-linecap="round" stroke-linejoin="round"/><path d="M932 306 C882 352 848 260 796 304 M762 286 C716 276 724 360 670 348 M638 360 C600 380 584 416 572 452" fill="none" stroke="#090B1A" stroke-width="52" stroke-linecap="round" stroke-linejoin="round"/><path d="M932 306 C882 352 848 260 796 304 M762 286 C716 276 724 360 670 348 M638 360 C600 380 584 416 572 452" fill="none" stroke="#FF4FA3" stroke-width="20" stroke-linecap="round" stroke-linejoin="round"/><path d="M270 862 C326 838 292 754 350 732 M382 718 C426 708 388 646 436 618 M454 594 C480 584 500 572 512 560" fill="none" stroke="#090B1A" stroke-width="52" stroke-linecap="round" stroke-linejoin="round"/><path d="M270 862 C326 838 292 754 350 732 M382 718 C426 708 388 646 436 618 M454 594 C480 584 500 572 512 560" fill="none" stroke="#FFD166" stroke-width="20" stroke-linecap="round" stroke-linejoin="round"/><circle cx="512" cy="488" r="80" fill="#141936" stroke="#090B1A" stroke-width="38"/><circle cx="512" cy="488" r="68" fill="#141936" stroke="#52E0A4" stroke-width="16"/></g></g>
</svg>
