<?xml version="1.0" encoding="UTF-8"?>
<svg xmlns="http://www.w3.org/2000/svg" width="1024" height="1024" viewBox="0 0 1024 1024" color-interpolation="sRGB" shape-rendering="geometricPrecision">
  <title>skin_item_b_05_base</title>
  <desc>right-side astral financial statement with transactions total and opposing trend chart; base layer. Original project-authored procedural vector, art-v1.</desc>
  <metadata>manifestId=skin_item_b_05_base;style=art-v1;license=project-original</metadata>
  <defs></defs>
  <g id="asset"><g id="base"><path d="M738 154 H906 L974 222 V718 Q974 742 950 742 H738 Q714 742 714 718 V178 Q714 154 738 154 Z" fill="#141936" stroke="#090B1A" stroke-width="18" stroke-linejoin="round"/><path d="M906 154 V222 H974" fill="#202750" stroke="#090B1A" stroke-width="14" stroke-linejoin="round"/><path d="M750 238 H876 M750 270 H838" fill="none" stroke="#090B1A" stroke-width="14" stroke-linecap="round"/><rect x="744" y="304" width="200" height="154" rx="16" fill="#202750" stroke="#090B1A" stroke-width="12"/><path d="M768 330 V430 H924 M768 380 H924 M820 330 V430 M872 330 V430" fill="none" stroke="#090B1A" stroke-width="8" opacity="0.72"/><path d="M742 500 H946 M742 550 H946 M742 600 H946" fill="none" stroke="#090B1A" stroke-width="10" stroke-linecap="round"/><circle cx="764" cy="480" r="14" fill="#202750" stroke="#090B1A" stroke-width="8"/><circle cx="764" cy="530" r="14" fill="#202750" stroke="#090B1A" stroke-width="8"/><circle cx="764" cy="580" r="14" fill="#202750" stroke="#090B1A" stroke-width="8"/><path d="M798 480 H854 M798 530 H874 M798 580 H840" fill="none" stroke="#090B1A" stroke-width="12" stroke-linecap="round"/><path d="M888 480 H928 M898 530 H928 M878 580 H928" fill="none" stroke="#090B1A" stroke-width="16" stroke-linecap="round"/><path d="M742 630 H946 M742 646 H946" fill="none" stroke="#090B1A" stroke-width="9" stroke-linecap="round"/><rect x="742" y="670" width="204" height="42" rx="14" fill="#202750" stroke="#090B1A" stroke-width="10"/></g></g>
</svg>
