<?xml version="1.0" encoding="UTF-8"?>
<svg xmlns="http://www.w3.org/2000/svg" width="1024" height="1024" viewBox="0 0 1024 1024" color-interpolation="sRGB" shape-rendering="geometricPrecision">
  <title>skin_item_c_05_base</title>
  <desc>broken 404 scene frame with interrupted missing horizon; base layer. Original project-authored procedural vector, art-v1.</desc>
  <metadata>manifestId=skin_item_c_05_base;style=art-v1;license=project-original</metadata>
  <defs></defs>
  <g id="asset"><g id="base"><path d="M110 790 V590 M110 506 V300 Q110 222 188 222 H304 M720 222 H836 Q914 222 914 300 V506 M914 590 V790 M110 790 H258 M330 790 H388 M636 790 H694 M766 790 H914" fill="none" stroke="#090B1A" stroke-width="58" stroke-linecap="square" stroke-linejoin="round"/><path d="M110 790 V590 M110 506 V300 Q110 222 188 222 H304 M720 222 H836 Q914 222 914 300 V506 M914 590 V790 M110 790 H258 M330 790 H388 M636 790 H694 M766 790 H914" fill="none" stroke="#FFD166" stroke-width="24" stroke-linecap="square" stroke-linejoin="round"/><path d="M386 134 V194 H454 M454 134 V254 M490 134 H552 M552 134 V254 M552 254 H490 M490 254 V134 M588 134 V194 H656 M656 134 V254" fill="none" stroke="#090B1A" stroke-width="34" stroke-linecap="square" stroke-linejoin="miter"/><path d="M386 134 V194 H454 M454 134 V254 M490 134 H552 M552 134 V254 M552 254 H490 M490 254 V134 M588 134 V194 H656 M656 134 V254" fill="none" stroke="#FFD166" stroke-width="14" stroke-linecap="square" stroke-linejoin="miter"/><path d="M158 642 H248 M290 642 H348 L372 620 M652 620 L676 642 H734 M776 642 H866" fill="none" stroke="#090B1A" stroke-width="30" stroke-linecap="square" stroke-linejoin="miter"/><path d="M158 642 H248 M290 642 H348 L372 620 M652 620 L676 642 H734 M776 642 H866" fill="none" stroke="#52E0A4" stroke-width="12" stroke-linecap="square" stroke-linejoin="miter"/></g></g>
</svg>
